<?xml version="1.0" encoding="utf-8"?>
<!-- Generator: Adobe Illustrator 21.0.0, SVG Export Plug-In . SVG Version: 6.00 Build 0)  -->
<svg version="1.1" id="图层_1" xmlns="http://www.w3.org/2000/svg" xmlns:xlink="http://www.w3.org/1999/xlink" x="0px" y="0px"
	 viewBox="0 0 1024 1024" style="enable-background:new 0 0 1024 1024;" xml:space="preserve">
<style type="text/css">
	.st0{fill:#0A122E;}
	.st1{opacity:0.1;}
</style>
<g>
	<g>
		<path class="st0" d="M817.1,866.9H206.9c-79,0-143.3-64.3-143.3-143.3V300.3c0-79,64.3-143.3,143.3-143.3h610.2
			c79,0,143.3,64.3,143.3,143.3v423.4C960.4,802.7,896.1,866.9,817.1,866.9z M206.9,213.1c-48.1,0-87.2,39.1-87.2,87.2v423.4
			c0,48.1,39.1,87.2,87.2,87.2h610.2c48.1,0,87.2-39.1,87.2-87.2V300.3c0-48.1-39.1-87.2-87.2-87.2H206.9z"/>
	</g>
	<g class="st1">
		<path class="st0" d="M742.7,586.5L742.7,586.5c-59.8,0-136.5-63.9-136.5-4.2l27.8,96.4c0-88.2-64.2-165.7-151.8-176.2
			c-104.4-12.5-194,69.6-194,171.6v13.6c0,23.7,19.2,43,43,43h302.8h153.8c19.6,0,35.5-15.9,35.5-35.5v0
			C823.4,635.4,772.5,586.5,742.7,586.5z"/>
	</g>
	<g>
		<path class="st0" d="M554.8,710.1c-15.5,0-28-12.5-28-28v-49.1c0-67.4-54.9-122.3-122.3-122.3s-122.3,54.9-122.3,122.3V682
			c0,15.5-12.5,28-28,28s-28-12.5-28-28v-49.1c0-98.4,80-178.4,178.4-178.4s178.4,80,178.4,178.4V682
			C582.8,697.5,570.2,710.1,554.8,710.1z"/>
	</g>
	<g>
		<path class="st0" d="M743.8,710.1c-15.5,0-28-12.5-28-28v-30.9c0-36.7-29.8-66.5-66.5-66.5c-36.7,0-66.5,29.8-66.5,66.5V682
			c0,15.5-12.5,28-28,28c-15.5,0-28-12.5-28-28v-30.9c0-67.6,55-122.5,122.5-122.5s122.5,55,122.5,122.5V682
			C771.8,697.5,759.2,710.1,743.8,710.1z"/>
	</g>
	<g class="st1">
		<circle class="st0" cx="748.5" cy="412" r="81.2"/>
	</g>
	<g>
		<path class="st0" d="M696,474.9c-41.2,0-74.7-33.5-74.7-74.7s33.5-74.7,74.7-74.7s74.7,33.5,74.7,74.7S737.2,474.9,696,474.9z
			 M696,372.1c-15.5,0-28,12.6-28,28c0,15.5,12.6,28,28,28s28-12.6,28-28C724,384.7,711.4,372.1,696,372.1z"/>
	</g>
</g>
</svg>
